<?xml version="1.0" encoding="UTF-8"?>
<svg width="700pt" height="700pt" version="1.1" viewBox="0 0 700 700" xmlns="http://www.w3.org/2000/svg">
 <path d="m280 455c0 58.031-47.039 105-105 105-58.031 0-105-46.969-105-105 0-57.961 46.969-105 105-105 57.961 0 105 47.039 105 105zm-105-280h-52.5c-28.98 0-52.5 23.52-52.5 52.5s23.52 52.5 52.5 52.5h52.5c96.652 0 175 78.348 175 175v52.5c0 28.98 23.52 52.5 52.5 52.5s52.5-23.52 52.5-52.5v-52.5c0-154.63-125.37-280-280-280zm0-175h-52.5c-28.98 0-52.5 23.52-52.5 52.5s23.52 52.5 52.5 52.5h52.5c193.32 0 350 156.68 350 350v52.5c0 28.98 23.52 52.5 52.5 52.5s52.5-23.52 52.5-52.5v-52.5c0-251.28-203.72-455-455-455z"/>
</svg>
